<?xml version="1.0" standalone="no"?><!DOCTYPE svg PUBLIC "-//W3C//DTD SVG 1.1//EN" "http://www.w3.org/Graphics/SVG/1.1/DTD/svg11.dtd"><svg class="icon" width="200px" height="200.00px" viewBox="0 0 1024 1024" version="1.1" xmlns="http://www.w3.org/2000/svg"><path fill="#333333" d="M707.1 440.1l-91.3 93.2c-36.8 38.6-99.3 38.6-136.1 0-6.4-6.4-6.4-17.7 0-24.1 6.4-6.4 16-6.4 22.4 0 25.6 25.7 65.6 25.7 91.3 0l91.3-93.2c25.6-25.7 25.6-67.5 0-93.2-25.6-25.7-65.7-25.7-91.3 0l-56 57.8c-6.4 6.4-16 6.4-22.4 0-6.4-6.4-6.4-17.7 0-24.1l56-57.8c36.8-38.6 99.3-38.6 136.1 0 38.5 38.6 38.5 101.3 0 141.4z m-163.3 40.2c-6.4 6.4-16 6.4-22.4 0-25.6-25.7-65.6-25.7-91.3 0l-91.3 93.2c-25.6 25.7-25.6 67.5 0 93.2 25.6 25.7 65.6 25.7 91.3 0l56-57.8c6.4-6.4 16-6.4 22.4-1.6 6.4 6.4 6.4 17.7 0 24.1l-56.1 57.8c-36.8 38.6-99.3 38.6-136.1 0s-38.4-101.2 0-139.8l91.3-93.2c36.8-38.6 99.3-38.6 136.1 0 6.5 6.4 6.5 17.7 0.1 24.1z"  /></svg>